<?xml version="1.0" encoding="UTF-8" standalone="no"?>
<!-- Created with sK1/UniConvertor (http://sk1project.org/) -->

<svg
   width="595.276pt"
   height="841.89pt"
   viewBox="0 0 595.276 841.89"
   fill-rule="evenodd"
   version="1.1"
   id="svg14"
   sodipodi:docname="tank.svg"
   inkscape:version="1.4.1 (unknown)"
   xmlns:inkscape="http://www.inkscape.org/namespaces/inkscape"
   xmlns:sodipodi="http://sodipodi.sourceforge.net/DTD/sodipodi-0.dtd"
   xmlns="http://www.w3.org/2000/svg"
   xmlns:svg="http://www.w3.org/2000/svg">
  <defs
     id="defs14" />
  <sodipodi:namedview
     id="namedview14"
     pagecolor="#ffffff"
     bordercolor="#000000"
     borderopacity="0.25"
     inkscape:showpageshadow="2"
     inkscape:pageopacity="0.0"
     inkscape:pagecheckerboard="0"
     inkscape:deskcolor="#d1d1d1"
     inkscape:document-units="pt"
     inkscape:zoom="8.8800198"
     inkscape:cx="156.6438"
     inkscape:cy="1034.0067"
     inkscape:window-width="3354"
     inkscape:window-height="2515"
     inkscape:window-x="0"
     inkscape:window-y="0"
     inkscape:window-maximized="0"
     inkscape:current-layer="svg14" />
  <path
     style="fill:#000080;stroke:#000000;stroke-width:1;stroke-linecap:round;stroke-linejoin:round"
     d="m 4.6364,824.89 c 2.5757,0 5.1515,0 7.7272,0 0.9878,0 2.0417,-0.207 2.9281,-0.674 0.4413,-0.233 0.8627,-0.543 1.1805,-0.936 0.3192,-0.395 0.5278,-0.869 0.5278,-1.39 0,-21.334 0,-42.667 0,-64 0,-0.521 -0.2085,-0.995 -0.5276,-1.39 -0.3176,-0.393 -0.7388,-0.703 -1.1799,-0.936 -0.8866,-0.467 -1.9409,-0.674 -2.9289,-0.674 -2.5757,0 -5.1515,0 -7.7272,0 -0.9878,0 -2.0417,0.207 -2.9281,0.674 C 1.267,755.796 0.8456,756.106 0.5278,756.5 0.2086,756.895 0,757.369 0,757.89 c 0,21.333 0,42.666 0,64 0,0.521 0.2085,0.995 0.5276,1.39 0.3176,0.393 0.7388,0.703 1.1799,0.935 0.8866,0.468 1.9409,0.675 2.9289,0.675 z"
     id="path12"
     inkscape:export-filename="path12.svg"
     inkscape:export-xdpi="24.190458"
     inkscape:export-ydpi="24.190458" />
  <path
     style="fill:#000080;stroke:#000000;stroke-width:1;stroke-linecap:round;stroke-linejoin:round"
     d="m 111.636,824.89 c 2.576,0 5.152,0 7.728,0 0.987,0 2.041,-0.207 2.928,-0.674 0.441,-0.233 0.862,-0.543 1.18,-0.936 0.319,-0.395 0.528,-0.869 0.528,-1.39 0,-21.334 0,-42.667 0,-64 0,-0.521 -0.209,-0.995 -0.528,-1.39 -0.317,-0.393 -0.738,-0.703 -1.179,-0.936 -0.887,-0.467 -1.941,-0.674 -2.929,-0.674 -2.576,0 -5.152,0 -7.728,0 -0.987,0 -2.041,0.207 -2.928,0.674 -0.441,0.232 -0.862,0.542 -1.18,0.936 -0.319,0.395 -0.528,0.869 -0.528,1.39 0,21.333 0,42.666 0,64 0,0.521 0.209,0.995 0.528,1.39 0.317,0.393 0.738,0.703 1.179,0.935 0.887,0.468 1.941,0.675 2.929,0.675 z"
     id="path13" />
  <path
     style="fill:#5599ff;stroke:#000000;stroke-width:1;stroke-linecap:round;stroke-linejoin:round"
     d="m 102.745,838.554 c -0.283,0.907 -0.804,1.742 -1.54,2.358 -0.737,0.617 -1.6502,0.978 -2.6205,0.978 -1.0596,0 -2.1192,0 -3.1789,0 -0.8053,0 -1.5779,-0.25 -2.2435,-0.695 -0.6651,-0.445 -1.193,-1.065 -1.5591,-1.77 -2.0883,-4.024 -4.1765,-8.047 -6.2648,-12.07 -0.3661,-0.706 -0.894,-1.325 -1.559,-1.77 -0.6656,-0.446 -1.4383,-0.695 -2.2437,-0.695 -6.5118,0 -13.0237,0 -19.5355,0 -6.5118,0 -13.0237,0 -19.5355,0 -0.8053,0 -1.578,0.249 -2.2435,0.695 -0.6652,0.445 -1.193,1.064 -1.5592,1.77 -2.0883,4.023 -4.1765,8.046 -6.2648,12.07 -0.3661,0.705 -0.8939,1.325 -1.559,1.77 -0.6656,0.445 -1.4383,0.695 -2.2436,0.695 -1.0597,0 -2.1193,0 -3.1789,0 -0.9702,0 -1.8836,-0.361 -2.6203,-0.978 -0.7361,-0.616 -1.2573,-1.451 -1.5399,-2.358 -1.4185,-4.555 -2.8369,-9.11 -4.2553,-13.664 0,-26.014 0,-52.028 0,-78.041 0,-1.283 0.2178,-2.565 0.6521,-3.773 2.2718,-6.32 4.5435,-12.64 6.8153,-18.959 0.6169,-1.716 1.6706,-3.277 3.1123,-4.42 1.4431,-1.145 3.2011,-1.807 5.0591,-1.807 19.5741,0 39.1483,0 58.7224,0 1.8579,0 3.6158,0.662 5.0589,1.807 1.4417,1.143 2.4956,2.704 3.1125,4.42 2.2714,6.319 4.5434,12.639 6.8154,18.959 0.434,1.208 0.652,2.49 0.652,3.773 0,26.013 0,52.027 0,78.041 -1.418,4.554 -2.837,9.109 -4.255,13.664 z"
     id="path14" />
  <path
     style="fill:#ff0000;stroke:#000000;stroke-width:1;stroke-linecap:round;stroke-linejoin:round"
     d="m 62,724.89 -10,25 h 20 z"
     id="path1" />
  <path
     style="fill:#d42aff;stroke:#000000;stroke-width:1;stroke-linecap:round;stroke-linejoin:round"
     d="m 90.2706,819.581 c -1.2461,-0.459 -2.2545,-1.391 -2.8108,-2.597 -0.5563,-1.206 -0.6106,-2.578 -0.1512,-3.824 0.4594,-1.246 1.391,-2.254 2.5969,-2.81 1.206,-0.557 2.5778,-0.611 3.8239,-0.152 1.2461,0.46 2.2545,1.391 2.8108,2.597 0.5563,1.206 0.6106,2.578 0.1512,3.824 -0.4594,1.246 -1.391,2.255 -2.5969,2.811 -1.206,0.556 -2.5778,0.611 -3.8239,0.151 z"
     id="path2" />
  <path
     style="fill:#d42aff;stroke:#000000;stroke-width:1;stroke-linecap:round;stroke-linejoin:round"
     d="m 80.7834,802.172 c -1.0373,-0.83 -1.6998,-2.032 -1.8469,-3.352 -0.1471,-1.32 0.2347,-2.639 1.064,-3.676 0.8293,-1.037 2.0317,-1.7 3.3516,-1.847 1.3199,-0.147 2.6387,0.235 3.676,1.064 1.0373,0.83 1.6998,2.032 1.8469,3.352 0.1471,1.32 -0.2347,2.639 -1.064,3.676 -0.8293,1.037 -2.0317,1.7 -3.3516,1.847 -1.3199,0.147 -2.6387,-0.235 -3.676,-1.064 z"
     id="path3" />
  <path
     style="fill:#d42aff;stroke:#000000;stroke-width:1;stroke-linecap:round;stroke-linejoin:round"
     d="m 77.9314,782.769 c -0.7719,-1.081 -1.0817,-2.418 -0.8634,-3.728 0.2183,-1.31 0.945,-2.475 2.0257,-3.247 1.0807,-0.772 2.4181,-1.082 3.7281,-0.863 1.31,0.218 2.4748,0.945 3.2468,2.025 0.7719,1.081 1.0817,2.419 0.8634,3.729 -0.2183,1.31 -0.945,2.474 -2.0257,3.246 -1.0807,0.772 -2.4181,1.082 -3.7281,0.864 -1.31,-0.219 -2.4748,-0.945 -3.2468,-2.026 z"
     id="path4" />
  <path
     style="fill:#d42aff;stroke:#000000;stroke-width:1;stroke-linecap:round;stroke-linejoin:round"
     d="m 79.1095,763.166 c -0.457,-1.247 -0.4002,-2.619 0.1583,-3.824 0.5585,-1.205 1.5687,-2.135 2.8156,-2.592 1.247,-0.457 2.6186,-0.4 3.8235,0.159 1.2049,0.558 2.1348,1.568 2.5918,2.815 0.457,1.247 0.4002,2.619 -0.1583,3.824 -0.5585,1.205 -1.5687,2.134 -2.8156,2.591 -1.247,0.457 -2.6187,0.401 -3.8235,-0.158 -1.2049,-0.558 -2.1348,-1.569 -2.5918,-2.815 z"
     id="path5" />
  <path
     style="fill:#d42aff;stroke:#000000;stroke-width:1;stroke-linecap:round;stroke-linejoin:round"
     d="m 87,744.89 c 0,-1.328 0.5254,-2.597 1.4644,-3.536 0.9391,-0.939 2.2075,-1.464 3.5356,-1.464 1.328,0 2.5964,0.525 3.5355,1.464 0.9391,0.939 1.4645,2.208 1.4645,3.536 0,1.328 -0.5254,2.596 -1.4644,3.535 -0.9391,0.939 -2.2075,1.465 -3.5356,1.465 -1.328,0 -2.5964,-0.526 -3.5355,-1.465 C 87.5254,747.486 87,746.218 87,744.89 Z"
     id="path6" />
  <path
     style="fill:#d42aff;stroke:#000000;stroke-width:1;stroke-linecap:round;stroke-linejoin:round"
     d="m 33.7294,819.581 c 1.2461,-0.459 2.2545,-1.391 2.8108,-2.597 0.5563,-1.206 0.6106,-2.578 0.1512,-3.824 -0.4594,-1.246 -1.391,-2.254 -2.5969,-2.81 -1.206,-0.557 -2.5778,-0.611 -3.8239,-0.152 -1.2461,0.46 -2.2545,1.391 -2.8108,2.597 -0.5563,1.206 -0.6106,2.578 -0.1512,3.824 0.4594,1.246 1.391,2.255 2.5969,2.811 1.206,0.556 2.5778,0.611 3.8239,0.151 z"
     id="path7" />
  <path
     style="fill:#d42aff;stroke:#000000;stroke-width:1;stroke-linecap:round;stroke-linejoin:round"
     d="m 43.2166,802.172 c 1.0373,-0.83 1.6998,-2.032 1.8469,-3.352 0.1471,-1.32 -0.2347,-2.639 -1.064,-3.676 -0.8293,-1.037 -2.0317,-1.7 -3.3516,-1.847 -1.3199,-0.147 -2.6387,0.235 -3.676,1.064 -1.0373,0.83 -1.6998,2.032 -1.8469,3.352 -0.1471,1.32 0.2347,2.639 1.064,3.676 0.8293,1.037 2.0317,1.7 3.3516,1.847 1.3199,0.147 2.6387,-0.235 3.676,-1.064 z"
     id="path8" />
  <path
     style="fill:#d42aff;stroke:#000000;stroke-width:1;stroke-linecap:round;stroke-linejoin:round"
     d="m 46.0686,782.769 c 0.7719,-1.081 1.0817,-2.418 0.8634,-3.728 -0.2183,-1.31 -0.945,-2.475 -2.0257,-3.247 -1.0807,-0.772 -2.4181,-1.082 -3.7281,-0.863 -1.31,0.218 -2.4748,0.945 -3.2468,2.025 -0.7719,1.081 -1.0817,2.419 -0.8634,3.729 0.2183,1.31 0.945,2.474 2.0257,3.246 1.0807,0.772 2.4181,1.082 3.7281,0.864 1.31,-0.219 2.4748,-0.945 3.2468,-2.026 z"
     id="path9" />
  <path
     style="fill:#d42aff;stroke:#000000;stroke-width:1;stroke-linecap:round;stroke-linejoin:round"
     d="m 44.8905,763.166 c 0.457,-1.247 0.4002,-2.619 -0.1583,-3.824 -0.5585,-1.205 -1.5687,-2.135 -2.8156,-2.592 -1.247,-0.457 -2.6186,-0.4 -3.8235,0.159 -1.2049,0.558 -2.1348,1.568 -2.5918,2.815 -0.457,1.247 -0.4002,2.619 0.1583,3.824 0.5585,1.205 1.5687,2.134 2.8156,2.591 1.247,0.457 2.6187,0.401 3.8235,-0.158 1.2049,-0.558 2.1348,-1.569 2.5918,-2.815 z"
     id="path10" />
  <path
     style="fill:#d42aff;stroke:#000000;stroke-width:1;stroke-linecap:round;stroke-linejoin:round"
     d="m 37,744.89 c 0,-1.328 -0.5254,-2.597 -1.4644,-3.536 -0.9391,-0.939 -2.2075,-1.464 -3.5356,-1.464 -1.328,0 -2.5964,0.525 -3.5355,1.464 C 27.5254,742.293 27,743.562 27,744.89 c 0,1.328 0.5254,2.596 1.4644,3.535 0.9391,0.939 2.2075,1.465 3.5356,1.465 1.328,0 2.5964,-0.526 3.5355,-1.465 C 36.4746,747.486 37,746.218 37,744.89 Z"
     id="path11" />
</svg>
